<mxfile host="app.diagrams.net" modified="2023-04-15T18:37:18.424Z" agent="Mozilla/5.0 (Windows NT 10.0; Win64; x64) AppleWebKit/537.36 (KHTML, like Gecko) Chrome/111.0.0.0 Safari/537.36" version="21.1.8" etag="hGIZDIrQzfTYlLh63Qfz" type="github">
  <diagram name="第 1 页" id="xtdSxDX-5x4Kmt320bG3">
    <mxGraphModel>
      <root>
        <mxCell id="0" />
        <mxCell id="1" parent="0" />
      </root>
    </mxGraphModel>
  </diagram>
</mxfile>
